# xmcd CD database file
# Copyright (C) 1993-1996 Ti Kan
#
# Track frame offsets:
#	150
#	21492
#	45660
#	74440
#	88967
#	105067
#	120520
#	156360
#	175480
#	195990
#	214337
#	233412
#	253725
#	273857
#	287230
#
# Disc length: 4155 seconds
#
# Revision: 2
# Processed by: cddbd v1.4b41PL1 Copyright (c) Steve Scherf et al.
# Submitted via: EasyCD2 v3.00 - Copyright (c) 1997 Greg Leichner
#
DISCID=d410390f
DTITLE=Sonny Kenner - Yesterday, Today and Tomorrow
DYEAR=1900
DGENRE=
TTITLE0=Sunny Side
TTITLE1=Kim Koshi
TTITLE2=Mustang  Sally
TTITLE3=Lullaby of Birdland
TTITLE4=What's Up
TTITLE5=Along Came Betty
TTITLE6=I Found Love
TTITLE7=Eleanor Rigby
TTITLE8=The Dope Game
TTITLE9=Play The Blues
TTITLE10=Brickhouse
TTITLE11=Wonderful World
TTITLE12=Romaine
TTITLE13=Time For Love
TTITLE14=Nothing Can Come
EXTD=
EXTT0=
EXTT1=
EXTT2=
EXTT3=
EXTT4=
EXTT5=
EXTT6=
EXTT7=
EXTT8=
EXTT9=
EXTT10=
EXTT11=
EXTT12=
EXTT13=
EXTT14=
PLAYORDER=
